<?xml version="1.0" standalone="no"?>
<!DOCTYPE svg PUBLIC "-//W3C//DTD SVG 20010904//EN"
 "http://www.w3.org/TR/2001/REC-SVG-20010904/DTD/svg10.dtd">
<svg version="1.0" xmlns="http://www.w3.org/2000/svg"
 width="612.000000pt" height="612.000000pt" viewBox="0 0 612.000000 612.000000"
 preserveAspectRatio="xMidYMid meet">
<metadata>
Created by potrace 1.14, written by Peter Selinger 2001-2017
</metadata>
<g transform="translate(0.000000,612.000000) scale(0.100000,-0.100000)"
fill="#000000" stroke="none">
<path d="M3975 5943 c-154 -18 -155 -19 -155 -152 0 -55 -4 -102 -8 -105 -17
-11 -427 -39 -582 -40 -182 -1 -237 9 -268 49 -15 19 -18 35 -15 69 7 62 -8
68 -159 64 -140 -4 -148 -9 -148 -95 0 -67 -19 -88 -89 -98 -60 -8 -142 1
-167 19 -11 9 -20 34 -25 76 -11 100 -65 140 -186 140 -79 0 -90 -19 -96 -160
l-2 -65 -420 -27 -420 -28 -30 -34 c-16 -19 -136 -149 -266 -288 -262 -281
-468 -511 -597 -665 -163 -196 -165 -206 -50 -197 41 3 79 1 87 -4 20 -14 30
-657 31 -2092 0 -1092 8 -1477 29 -1533 6 -16 20 -27 38 -31 55 -11 735 -33
1503 -48 l135 -3 12 135 c7 74 14 146 15 160 2 14 7 -48 12 -137 l8 -161 91
-6 c252 -17 618 -26 1052 -26 475 1 602 5 970 34 273 22 710 43 1250 61 259 8
497 16 530 18 l60 2 -105 54 c-277 142 -410 220 -410 242 0 19 74 8 142 -22
79 -34 99 -30 75 17 -9 16 -36 49 -62 74 -49 48 -91 107 -82 117 12 11 91 -63
253 -238 91 -98 168 -179 171 -179 12 0 -9 179 -28 237 -25 76 -108 209 -214
343 -114 145 -142 158 -209 103 -28 -23 -30 -23 -39 -6 -6 10 -14 97 -18 193
-8 176 -14 220 -30 220 -12 0 -13 -50 -14 -500 0 -212 -4 -393 -9 -402 -4 -10
-15 -18 -23 -18 -16 0 -52 74 -53 110 0 19 -3 21 -9 10 -5 -8 -11 -64 -15
-125 -3 -60 -10 -127 -16 -147 -10 -35 -26 -55 -36 -46 -15 16 -26 156 -33
433 -9 369 -11 383 -83 415 -81 37 -186 22 -236 -33 -27 -28 -41 -111 -42
-238 0 -94 -15 -179 -36 -199 -14 -13 -17 -13 -30 4 -8 11 -14 32 -14 48 0 15
-4 28 -8 28 -5 0 -28 -22 -51 -50 -23 -27 -48 -50 -55 -50 -8 0 -26 17 -42 37
l-28 37 -13 -32 c-16 -38 -25 -41 -174 -44 -95 -2 -121 -6 -136 -20 -26 -24
-60 -23 -73 1 -5 11 -10 51 -10 90 0 118 32 152 85 90 16 -20 30 -28 35 -23
48 48 84 940 63 1562 -6 208 -16 241 -26 95 -6 -81 -25 -144 -46 -157 -21 -13
-49 5 -60 37 -7 18 -12 103 -12 204 0 201 9 235 65 258 44 19 61 45 75 115 25
128 51 599 51 935 1 292 14 512 33 556 8 20 38 60 66 89 28 29 54 65 57 79 17
73 81 144 131 144 47 0 103 -74 103 -136 0 -52 -19 -71 -73 -69 -45 2 -46 1
-56 -35 -12 -41 -13 -440 -2 -538 l7 -60 7 60 c17 132 20 146 36 166 9 11 36
23 61 27 59 10 69 32 76 164 3 57 8 119 11 138 l6 35 7 -30 c5 -16 11 -42 14
-57 7 -31 30 -36 60 -13 11 8 23 15 27 15 21 0 30 -99 36 -370 3 -162 9 -304
13 -315 16 -45 43 126 49 315 5 157 8 185 22 188 43 8 64 -132 54 -373 -10
-271 -8 -315 20 -315 23 0 27 30 36 245 11 270 22 313 61 235 10 -19 18 -57
19 -85 0 -27 4 -58 8 -68 6 -16 9 -16 31 8 51 54 60 32 60 -155 1 -195 -20
-1029 -29 -1135 l-6 -90 -13 165 c-18 224 -51 557 -60 600 -14 67 -20 -163
-20 -800 -1 -571 8 -973 22 -988 17 -17 21 40 26 346 5 315 8 362 29 362 17 0
22 -49 32 -285 10 -248 17 -314 34 -318 5 -1 13 14 18 33 5 19 12 478 17 1020
8 966 11 1081 32 1148 9 30 13 33 37 27 79 -20 108 -18 142 13 25 23 33 38 33
64 0 40 36 -12 -569 812 l-410 558 -160 -6 c-88 -3 -233 -9 -322 -13 l-163 -6
0 74 c-1 86 -13 148 -32 160 -13 8 -132 10 -193 2z m-1 -119 c23 -22 19 -144
-4 -144 -10 0 -40 86 -40 115 0 11 5 26 12 33 15 15 13 15 32 -4z m-1747 -129
c25 -25 43 -48 40 -52 -16 -16 -71 -6 -89 16 -18 23 -24 62 -11 74 10 10 9 11
60 -38z m570 0 c8 -21 -25 -55 -54 -55 -27 0 -29 16 -7 48 17 25 52 29 61 7z
m1863 -75 c15 -5 -26 -8 -105 -8 -79 0 -120 3 -105 8 14 4 61 8 105 8 44 0 91
-4 105 -8z m-1100 -36 c71 -4 98 -9 83 -15 -68 -25 -279 -31 -1193 -34 -922
-3 -944 -3 -620 10 508 20 856 36 950 45 88 9 597 4 780 -6z m833 -108 c18
-19 48 -41 67 -49 33 -14 23 -15 -149 -16 -101 -1 -182 1 -180 3 2 2 45 9 94
16 50 6 94 15 99 20 6 6 -9 17 -37 29 -26 11 -47 23 -47 26 0 3 27 5 61 5 56
0 62 -3 92 -34z m-949 -25 c3 -5 -105 -12 -242 -16 -270 -8 -499 -21 -413 -23
149 -5 821 -33 851 -36 19 -2 -201 -2 -490 -1 -416 3 -558 7 -685 21 -130 14
-244 18 -607 17 -247 0 -448 0 -448 2 0 9 235 28 428 35 333 10 1600 12 1606
1z m-1564 -111 c14 -4 -93 -8 -240 -8 -146 0 -251 4 -235 8 40 10 443 10 475
0z m2646 -5 c18 -13 16 -14 -28 -15 -45 0 -71 13 -46 23 25 10 54 7 74 -8z
m-1802 -31 c31 -12 16 -24 -29 -24 -42 0 -54 7 -38 23 8 9 46 9 67 1z m1346
-4 c14 -4 -135 -8 -330 -8 -195 0 -341 4 -325 8 40 10 623 10 655 0z m-2149
-40 c53 -29 -21 -55 -156 -54 -133 0 -187 28 -102 53 44 13 234 13 258 1z
m963 4 c31 -12 16 -24 -29 -24 -42 0 -54 7 -38 23 8 9 46 9 67 1z m-1640 -40
c29 -11 5 -24 -44 -24 -76 0 -75 26 2 29 14 0 33 -2 42 -5z m1569 -23 c123
-32 128 -43 16 -37 -98 6 -183 24 -241 51 -32 15 -30 15 57 10 50 -2 125 -13
168 -24z m1332 21 c49 -7 47 -7 -53 -20 -113 -14 -170 -31 -209 -62 -38 -30
-69 -26 -88 11 -21 39 -16 61 15 70 32 9 269 9 335 1z m289 2 c28 -11 6 -24
-39 -24 -67 0 -70 27 -3 29 14 1 33 -2 42 -5z m-2272 -31 c-27 -38 -322 -327
-456 -447 -136 -122 -300 -257 -346 -285 -45 -27 -75 -29 -61 -2 21 38 676
623 803 717 69 51 88 56 60 17z m1223 -12 c16 -6 10 -10 -27 -15 -55 -8 -127
2 -106 15 16 11 106 10 133 0z m-2221 -37 c9 -3 13 -10 10 -15 -6 -11 -74 -12
-100 -2 -16 6 -16 7 2 14 24 9 67 11 88 3z m680 0 c29 -11 5 -24 -44 -24 -47
0 -73 13 -48 23 19 8 74 8 92 1z m2294 -1 c18 -4 20 -8 10 -14 -15 -10 -89
-12 -113 -3 -43 17 49 32 103 17z m220 1 c12 -4 22 -10 22 -15 0 -12 -87 -12
-94 0 -11 17 31 25 72 15z m-772 -89 c10 -1 24 -4 30 -8 17 -10 26 -82 18
-148 l-6 -58 -60 -20 c-77 -26 -98 -17 -98 40 0 49 24 146 53 213 l21 49 11
-34 c8 -22 18 -34 31 -34z m-862 49 c29 -11 5 -24 -44 -24 -47 0 -73 13 -48
23 19 8 74 8 92 1z m670 -11 c13 -32 -20 -48 -107 -51 -95 -4 -95 5 -1 43 70
29 100 31 108 8z m-1953 -13 c42 -23 14 -80 -40 -80 -26 0 -45 34 -37 66 7 26
41 33 77 14z m1086 -296 c153 -163 287 -307 297 -321 l19 -25 -127 4 c-143 3
-156 10 -156 75 0 33 -36 83 -58 83 -25 0 -54 -39 -63 -84 -11 -60 -23 -76
-60 -76 -42 0 -51 28 -59 182 -7 145 -15 168 -56 168 -59 0 -93 -67 -94 -190
-1 -90 -12 -141 -32 -154 -25 -15 -46 9 -63 73 -17 67 -40 102 -60 94 -20 -7
-40 -47 -49 -94 -12 -70 -25 -74 -230 -74 -124 0 -187 4 -201 12 -19 11 -9 23
130 160 178 176 422 395 484 435 82 51 69 61 378 -268z m-773 277 c18 -7 18
-8 -5 -14 -51 -14 -144 -3 -117 14 16 11 96 10 122 0z m1234 0 c20 -12 -59
-23 -109 -15 -55 9 -30 24 41 24 30 0 61 -4 68 -9z m1297 -30 c3 -5 0 -13 -7
-17 -18 -12 -367 -18 -425 -8 -47 8 -46 8 52 19 124 15 372 18 380 6z m-3150
-11 c13 -6 -19 -9 -90 -9 -74 -1 -105 2 -95 9 18 12 157 12 185 0z m2214 -39
c21 -13 -49 -25 -96 -16 -49 9 -25 25 37 25 25 0 51 -4 59 -9z m799 -31 c39 0
72 -4 72 -9 0 -22 -323 -50 -414 -37 -50 8 -59 20 -23 32 34 11 186 23 242 18
28 -2 83 -4 123 -4z m-2504 -6 c29 -11 17 -24 -23 -24 -38 0 -57 10 -44 24 8
8 46 8 67 0z m1280 0 c31 -12 16 -24 -29 -24 -42 0 -54 7 -38 23 8 9 46 9 67
1z m-1966 -43 c10 -6 8 -10 -10 -14 -51 -14 -124 -5 -112 14 7 11 105 12 122
0z m1806 -37 c31 -12 16 -24 -29 -24 -42 0 -54 7 -38 23 8 9 46 9 67 1z m564
-3 c19 -11 -8 -21 -58 -21 -39 0 -61 14 -38 23 21 9 82 7 96 -2z m812 -21 c39
-24 -45 -39 -225 -39 -140 -1 -204 11 -134 24 127 23 332 32 359 15z m-2625
-9 c31 -6 36 -9 20 -14 -34 -11 -435 -38 -604 -40 -142 -2 -185 3 -170 18 27
27 646 57 754 36z m1493 -10 c19 -11 -8 -21 -58 -21 -39 0 -61 14 -38 23 21 9
82 7 96 -2z m338 -46 c25 -10 34 -20 32 -32 -3 -14 -13 -18 -48 -17 -41 2
-160 45 -160 58 0 13 143 5 176 -9z m667 -31 l37 -7 -25 -23 c-14 -13 -25 -34
-25 -47 0 -13 -6 -31 -13 -42 -12 -16 -28 -18 -122 -17 -124 2 -464 28 -544
42 -30 6 -57 10 -60 11 -3 0 3 4 14 9 11 5 122 9 247 9 125 1 229 5 232 10 3
5 -6 17 -21 27 -26 16 -26 18 -8 25 24 9 235 11 288 3z m491 -30 c19 -49 -1
-570 -30 -768 -24 -172 -53 -217 -83 -130 -36 105 18 798 70 895 12 23 35 25
43 3z m-3274 -14 c10 -6 -60 -10 -208 -10 -146 0 -221 3 -217 10 8 13 405 13
425 0z m23 -96 c20 -4 37 -10 37 -14 0 -14 -65 -20 -295 -26 -255 -7 -475 2
-416 18 72 20 586 36 674 22z m2532 -44 c160 -13 201 -20 184 -31 -8 -5 -147
-9 -309 -9 -343 1 -491 14 -449 41 19 12 425 11 574 -1z m-2685 -60 c10 -7
-17 -10 -85 -10 -68 0 -95 3 -85 10 8 5 47 10 85 10 39 0 77 -5 85 -10z m3224
-443 c-1 -238 -9 -666 -19 -952 -9 -286 -20 -846 -25 -1245 -4 -399 -9 -727
-9 -729 -1 -6 -233 7 -239 14 -3 3 0 114 7 248 21 435 30 770 41 1577 15 1174
29 1387 85 1340 16 -14 35 -117 36 -201 2 -114 15 -123 23 -14 14 205 43 372
68 403 30 35 33 -11 32 -441z m-515 405 c50 -11 49 -29 -1 -44 -58 -18 -541
-18 -580 -1 -60 26 -25 41 127 54 99 8 400 2 454 -9z m-3155 -1 c3 -5 -1 -12
-10 -15 -35 -13 -99 -2 -88 15 3 5 25 9 49 9 24 0 46 -4 49 -9z m223 -107 c7
-20 -81 -34 -204 -34 -130 0 -171 11 -107 29 61 17 82 19 198 17 71 -1 111 -5
113 -12z m2744 -45 c273 -10 357 -20 375 -45 22 -28 27 -420 15 -1099 -6 -368
-16 -913 -21 -1210 -15 -868 -14 -863 -124 -852 -94 9 -105 43 -116 367 -16
434 -39 490 -195 490 -167 0 -194 -66 -196 -462 0 -257 -10 -373 -32 -395 -22
-23 -85 -18 -112 7 -39 37 -46 84 -55 370 -12 355 -27 420 -111 462 -65 34
-259 16 -267 -25 -4 -21 22 -22 114 -6 47 8 72 8 98 -1 42 -14 79 -67 74 -107
l-3 -28 -137 0 c-99 0 -141 -4 -150 -13 -10 -10 -14 -89 -16 -347 l-3 -335
-57 -1 c-97 -1 -22 -15 190 -34 239 -22 527 -25 580 -7 49 17 88 64 88 105 0
18 3 43 7 57 5 20 9 11 20 -44 7 -38 19 -76 27 -84 16 -17 151 -31 300 -32
l89 0 -6 -57 c-4 -32 -9 -97 -13 -145 l-7 -87 -61 -6 c-118 -12 -1319 -10
-1347 2 -36 16 -38 32 -49 488 -13 543 -23 608 -103 669 -99 75 -222 89 -331
38 -93 -45 -127 -83 -147 -167 -7 -29 -14 -174 -18 -350 l-6 -300 -135 0 -135
0 -6 330 c-7 355 -10 383 -60 439 -65 75 -151 85 -232 27 -94 -68 -109 -138
-95 -445 15 -295 4 -330 -95 -324 -50 3 -51 4 -59 40 -4 21 -12 165 -17 320
-5 160 -14 300 -21 323 -17 55 -85 119 -143 134 -59 14 -121 1 -156 -33 -34
-34 -39 -97 -41 -436 -1 -318 -3 -328 -75 -352 -68 -23 -141 -24 -150 0 -21
50 -27 641 -19 1839 5 699 11 1274 14 1277 5 5 227 28 405 42 277 21 2174 24
2726 3z m820 -2005 c30 -37 17 -417 -17 -490 -18 -37 -56 -54 -83 -37 -14 9
-16 35 -15 184 1 189 15 295 46 334 22 29 50 32 69 9z m-2116 -403 c22 -10 47
-26 55 -36 14 -17 13 -18 -23 -12 -21 3 -53 15 -72 27 -63 39 -33 55 40 21z
m1295 -1 c35 -18 53 -51 54 -96 1 -33 -4 -49 -17 -59 -35 -25 -154 -30 -229
-9 -26 8 -30 38 -12 83 32 80 130 118 204 81z m-2656 -20 c30 -36 43 -92 28
-125 -13 -29 -73 -41 -130 -25 -46 12 -92 59 -92 94 0 47 55 86 121 86 40 0
51 -5 73 -30z m545 -18 c42 -21 74 -62 66 -84 -18 -46 -213 -71 -255 -33 -28
26 -25 66 8 97 15 14 34 28 42 31 32 12 107 6 139 -11z m911 -82 c26 -26 27
-83 1 -109 -33 -33 -194 -38 -288 -9 -35 10 -39 18 -23 47 37 71 260 121 310
71z m2764 -350 c20 -22 36 -44 36 -49 0 -30 -71 -7 -90 28 -14 28 -12 61 4 61
7 0 30 -18 50 -40z m-3584 -92 c0 -104 -14 -168 -35 -168 -23 0 -29 45 -16
118 27 165 51 188 51 50z m4169 66 c33 -27 56 -62 48 -71 -16 -16 -115 67
-102 86 10 17 21 13 54 -15z m-4774 -161 c-6 -38 -9 -44 -16 -28 -10 25 -11
102 -2 135 7 23 8 21 16 -17 5 -23 6 -63 2 -90z m1995 37 c0 -36 -10 -61 -21
-54 -10 6 -12 54 -3 78 9 24 24 9 24 -24z m-1510 -14 c0 -66 -14 -96 -46 -96
-25 0 -26 2 -21 40 5 39 40 100 58 100 5 0 9 -20 9 -44z m2207 -18 c29 -27 29
-55 1 -85 -37 -40 -48 -30 -48 42 0 71 9 79 47 43z m1133 -197 c23 -82 6 -241
-25 -241 -24 0 -40 63 -39 160 0 104 14 151 40 130 7 -7 18 -29 24 -49z m165
29 c22 -43 30 -175 13 -225 -11 -35 -17 -40 -43 -40 -39 0 -55 32 -55 115 1
147 45 227 85 150z m-3067 -153 l3 -159 -678 5 c-395 2 -691 8 -708 14 -44 14
-60 67 -46 151 11 74 31 109 69 124 32 13 568 25 1032 24 l325 -1 3 -158z
m2496 131 c23 -33 22 -191 -2 -238 -18 -38 -51 -50 -70 -27 -31 37 -33 235 -2
271 18 23 56 20 74 -6z m124 10 c5 -7 14 -33 19 -58 l9 -45 23 38 c63 103 121
69 121 -71 0 -55 -4 -75 -20 -95 -24 -30 -75 -47 -142 -47 -62 0 -72 18 -72
130 1 124 28 189 62 148z m-403 -52 c23 -35 22 -185 -2 -234 -20 -41 -52 -53
-74 -26 -22 27 -26 227 -5 259 21 33 60 33 81 1z m125 -2 c13 -34 13 -173 -1
-213 -26 -74 -59 -16 -59 104 0 92 11 135 35 135 9 0 20 -12 25 -26z m-2016
-93 c23 -101 20 -151 -10 -151 -18 0 -34 62 -34 132 0 109 22 118 44 19z m189
-126 c-9 -50 -22 -65 -52 -65 -38 0 -53 21 -59 79 -5 60 9 72 43 34 l24 -28
18 45 18 44 6 -39 c4 -22 5 -53 2 -70z m3321 79 c27 -10 7 -24 -34 -24 -50 0
-77 10 -58 21 15 10 69 12 92 3z"/>
<path d="M4211 3665 c0 -65 3 -93 9 -80 12 28 12 147 0 165 -7 10 -10 -17 -9
-85z"/>
<path d="M4172 2040 c0 -201 4 -354 8 -340 4 14 8 167 8 340 0 173 -4 326 -8
340 -4 14 -8 -139 -8 -340z"/>
<path d="M4167 1314 c-11 -11 -8 -94 3 -94 13 0 24 65 13 84 -5 9 -12 13 -16
10z"/>
<path d="M1511 4101 c-38 -38 -41 -203 -5 -242 21 -23 81 -25 110 -5 16 12 20
29 22 115 4 96 3 101 -22 126 -30 30 -78 33 -105 6z"/>
<path d="M1878 4109 c-22 -12 -38 -70 -38 -135 0 -117 25 -149 94 -120 l37 15
-6 83 c-8 105 -13 129 -32 151 -18 19 -30 21 -55 6z"/>
<path d="M2249 4110 c-25 -15 -61 -107 -67 -172 -4 -47 -1 -62 13 -78 54 -60
114 27 115 167 0 62 -3 74 -19 83 -23 12 -22 12 -42 0z"/>
<path d="M2545 4095 c-22 -21 -25 -33 -24 -92 0 -83 16 -130 50 -156 38 -28
67 -15 91 41 29 64 22 187 -12 214 -32 26 -76 23 -105 -7z"/>
<path d="M2918 4109 c-37 -21 -51 -168 -24 -234 13 -30 20 -35 48 -35 40 1 64
17 78 55 18 48 -8 164 -47 207 -18 20 -30 22 -55 7z"/>
<path d="M3271 4101 c-26 -26 -34 -73 -29 -162 4 -81 18 -99 76 -99 56 0 72
15 72 65 0 98 -42 205 -82 213 -9 2 -26 -6 -37 -17z"/>
<path d="M3626 4097 c-24 -24 -26 -32 -26 -122 0 -82 3 -98 20 -115 29 -29 95
-28 114 3 29 46 31 193 2 232 -6 9 -28 18 -48 21 -30 5 -41 2 -62 -19z"/>
<path d="M1166 4078 c-54 -46 -53 -176 2 -218 35 -28 82 -23 101 10 31 57 -12
218 -61 228 -8 2 -28 -7 -42 -20z"/>
<path d="M866 4058 c-24 -38 -38 -100 -34 -153 3 -46 5 -50 31 -53 48 -6 57
11 57 105 0 113 -21 152 -54 101z"/>
<path d="M1187 3410 c-34 -40 -57 -113 -60 -189 -2 -55 1 -65 22 -82 23 -19
76 -25 97 -11 25 16 34 56 34 146 0 119 -16 165 -57 166 -6 0 -22 -13 -36 -30z"/>
<path d="M1533 3432 c-38 -24 -85 -221 -65 -273 22 -55 172 -52 172 4 0 6 -10
65 -21 132 -24 134 -43 164 -86 137z"/>
<path d="M2864 3419 c-16 -18 -19 -37 -19 -139 0 -102 3 -121 19 -139 24 -27
76 -28 107 -2 23 18 24 25 24 141 0 116 -1 123 -24 141 -31 26 -83 25 -107 -2z"/>
<path d="M3273 3428 c-32 -41 -45 -200 -22 -267 20 -56 95 -51 127 9 25 47 -3
206 -45 252 -19 21 -46 23 -60 6z"/>
<path d="M3625 3426 c-22 -16 -32 -114 -20 -192 11 -76 71 -117 118 -81 41 30
46 228 6 268 -22 22 -77 25 -104 5z"/>
<path d="M859 3408 c-17 -31 -17 -225 0 -256 33 -61 81 14 81 128 0 114 -48
189 -81 128z"/>
<path d="M1860 3415 c-16 -19 -24 -127 -16 -199 9 -70 32 -102 69 -93 34 9 44
44 51 179 5 99 4 108 -13 118 -29 15 -77 12 -91 -5z"/>
<path d="M2530 3410 c-17 -17 -20 -33 -20 -120 0 -113 14 -156 55 -166 32 -8
52 9 65 55 13 48 13 180 -1 220 -9 27 -16 31 -45 31 -21 0 -42 -8 -54 -20z"/>
<path d="M2201 3394 c-46 -58 -52 -181 -13 -234 26 -34 87 -50 109 -27 31 31
18 215 -19 262 -25 32 -51 32 -77 -1z"/>
<path d="M2188 2723 c-20 -42 -22 -66 -23 -188 0 -156 6 -189 36 -206 34 -18
87 -2 104 31 42 80 -19 397 -78 408 -13 3 -23 -10 -39 -45z"/>
<path d="M1503 2733 c-15 -23 -18 -50 -18 -173 1 -181 11 -215 65 -231 48 -15
65 -4 80 50 13 48 13 302 -1 338 -13 35 -25 43 -71 43 -30 0 -41 -6 -55 -27z"/>
<path d="M1864 2734 c-13 -19 -19 -60 -25 -163 -4 -75 -13 -156 -20 -179 -11
-37 -10 -45 4 -59 15 -15 18 -15 37 2 11 10 20 29 20 42 0 32 17 63 35 63 23
0 37 38 42 120 9 133 -10 200 -57 200 -11 0 -27 -12 -36 -26z"/>
<path d="M2864 2739 c-17 -19 -19 -38 -19 -183 0 -151 12 -236 33 -236 16 1
31 17 41 43 9 22 16 27 30 22 36 -11 46 28 46 180 0 169 -10 195 -74 195 -26
0 -44 -7 -57 -21z"/>
<path d="M1166 2718 c-31 -47 -50 -323 -26 -369 26 -47 111 1 131 74 18 65 5
209 -23 265 -27 55 -58 66 -82 30z"/>
<path d="M2526 2721 c-36 -40 -48 -320 -17 -380 12 -21 15 -22 28 -8 9 8 18
43 22 79 9 84 14 91 61 83 54 -9 64 11 51 111 -12 97 -33 128 -88 132 -29 2
-44 -2 -57 -17z"/>
<path d="M3254 2733 c-25 -17 -36 -59 -45 -176 -11 -126 -8 -202 8 -218 16
-16 145 24 154 47 4 10 8 78 8 149 1 164 -12 199 -74 203 -22 1 -45 -1 -51 -5z"/>
<path d="M3599 2704 c-8 -10 -15 -48 -18 -91 -5 -104 9 -283 22 -283 28 0 76
53 93 102 25 73 25 224 1 261 -21 32 -76 38 -98 11z"/>
<path d="M851 2674 c-29 -37 -43 -97 -43 -184 0 -150 61 -219 108 -122 26 53
33 256 10 301 -20 38 -47 40 -75 5z"/>
<path d="M2843 920 c-38 -9 -63 -27 -63 -45 0 -19 24 -25 105 -25 55 0 76 4
86 16 11 14 10 19 -10 35 -13 11 -31 19 -41 19 -10 0 -24 2 -32 4 -7 2 -28 0
-45 -4z"/>
<path d="M3420 920 c-44 -8 -60 -17 -60 -35 0 -23 34 -35 98 -35 43 0 66 5 83
19 l23 18 -25 15 c-31 20 -75 27 -119 18z"/>
<path d="M863 960 c-18 -4 -40 -13 -48 -20 -14 -12 -14 -15 1 -31 25 -28 112
-26 148 2 23 18 25 24 14 34 -18 17 -76 25 -115 15z"/>
<path d="M1392 951 c-11 -7 -10 -10 3 -15 25 -9 93 -7 99 3 12 19 -75 30 -102
12z"/>
<path d="M4653 4380 c0 -140 2 -196 7 -160 11 73 11 274 1 330 -6 29 -8 -32
-8 -170z"/>
<path d="M5053 4200 c0 -176 3 -271 7 -235 4 33 8 139 8 235 0 96 -4 202 -8
235 -4 36 -7 -59 -7 -235z"/>
<path d="M4917 4145 c-16 -230 -48 -375 -81 -375 -26 0 -37 38 -45 146 -4 57
-10 106 -13 109 -12 12 -34 -358 -49 -835 -11 -329 -7 -855 6 -868 3 -3 13 2
23 11 10 9 40 21 66 26 57 11 65 17 76 67 9 38 36 1758 28 1804 -2 14 -7 -24
-11 -85z m-66 -812 c11 -12 14 -64 14 -233 0 -202 -1 -219 -19 -239 -25 -28
-57 -23 -73 9 -29 58 -6 399 31 455 19 29 29 31 47 8z"/>
<path d="M5425 4188 c-18 -63 -19 -171 -1 -254 29 -135 44 -102 45 102 1 205
-13 255 -44 152z"/>
<path d="M4630 3904 c-30 -96 -38 -195 -17 -213 9 -7 21 -10 26 -6 19 11 31
79 31 170 0 122 -12 137 -40 49z"/>
<path d="M5166 3793 c-11 -90 -19 -1804 -9 -1814 13 -13 19 20 34 176 6 66 15
142 20 169 5 27 9 50 9 52 0 14 38 34 65 34 58 0 60 10 59 338 -1 301 -10 370
-33 254 -14 -72 -50 -146 -73 -150 -34 -6 -42 42 -42 248 0 207 8 250 43 250
11 0 34 -12 51 -26 52 -44 55 -31 55 216 0 249 1 246 -81 261 -26 5 -55 16
-64 24 -25 22 -27 19 -34 -32z"/>
<path d="M5035 3618 c-9 -29 -19 -86 -22 -127 -6 -67 -5 -73 12 -70 10 2 24
20 31 39 15 41 18 196 4 205 -5 3 -16 -18 -25 -47z"/>
<path d="M4617 3476 c-4 -27 -6 -297 -5 -600 1 -373 4 -504 9 -406 12 256 21
963 12 1010 l-9 45 -7 -49z"/>
<path d="M5004 3299 c-13 -22 -11 -370 3 -394 11 -19 12 -18 20 10 11 41 8
344 -4 374 -8 19 -12 21 -19 10z"/>
<path d="M5007 2814 c-10 -11 -9 -102 2 -109 14 -8 25 59 14 90 -4 14 -12 23
-16 19z"/>
<path d="M5676 2663 c-18 -18 142 -163 225 -203 104 -51 94 17 -14 96 -84 62
-198 120 -211 107z"/>
<path d="M5004 2605 c-10 -38 -11 -497 0 -550 7 -36 9 -38 19 -20 14 24 13
511 -1 565 l-9 35 -9 -30z"/>
<path d="M5677 2454 c-15 -15 18 -46 78 -75 36 -17 93 -57 133 -94 76 -70 114
-92 130 -72 27 34 -59 113 -206 190 -95 49 -125 61 -135 51z"/>
<path d="M5652 2298 c12 -34 329 -268 364 -268 22 0 17 22 -16 62 -34 41 -180
143 -272 189 -63 32 -82 36 -76 17z"/>
<path d="M4887 2226 c-10 -25 -8 -118 2 -134 18 -29 29 90 12 132 -7 18 -8 18
-14 2z"/>
<path d="M4710 2185 c-43 -114 -35 -771 11 -857 9 -17 11 -17 39 3 22 17 37
20 64 16 22 -4 39 -1 45 7 18 22 30 151 31 318 0 183 -5 207 -31 149 -22 -51
-65 -91 -95 -91 -39 0 -46 50 -33 253 11 177 8 227 -11 227 -6 0 -15 -11 -20
-25z"/>
<path d="M5662 2108 c3 -7 42 -39 87 -71 45 -32 123 -98 174 -146 51 -49 102
-93 115 -100 36 -19 28 17 -18 87 -47 71 -150 158 -244 207 -68 35 -121 46
-114 23z"/>
<path d="M4582 2083 c-9 -23 -8 -236 2 -333 8 -78 19 -111 33 -96 13 13 16
358 3 405 -11 43 -26 52 -38 24z"/>
<path d="M5632 1991 c2 -5 52 -63 111 -129 189 -210 357 -364 357 -327 0 3
-11 27 -24 53 -60 119 -369 412 -434 412 -8 0 -12 -4 -10 -9z"/>
<path d="M96 1910 c19 -20 142 -60 185 -60 48 0 44 12 -13 41 -46 24 -191 40
-172 19z"/>
<path d="M152 1773 c-15 -3 -22 -10 -20 -21 8 -43 228 -59 228 -17 0 21 -155
49 -208 38z"/>
<path d="M5687 1744 c-12 -12 25 -67 92 -138 37 -39 113 -132 168 -206 105
-140 137 -170 157 -150 14 14 -24 86 -107 201 -162 225 -273 330 -310 293z"/>
<path d="M162 1633 c-27 -11 3 -23 58 -23 61 0 87 13 47 24 -26 7 -87 7 -105
-1z"/>
<path d="M4592 1553 c-29 -58 -34 -98 -16 -143 18 -44 38 -52 48 -17 9 36 7
185 -4 192 -5 3 -18 -11 -28 -32z"/>
<path d="M25 1550 c-4 -7 -2 -16 6 -21 24 -15 199 -69 246 -76 43 -6 45 -5 41
18 -3 27 -29 42 -111 63 -89 23 -173 31 -182 16z"/>
<path d="M21 1386 c-19 -23 -7 -44 31 -51 46 -8 168 -2 171 9 4 17 -77 50
-133 54 -42 3 -59 0 -69 -12z"/>
<path d="M72 1148 c5 -14 113 -57 145 -57 12 -1 29 9 38 21 14 21 14 24 -2 35
-23 17 -186 18 -181 1z"/>
<path d="M136 1000 c-37 -7 -55 -32 -37 -54 9 -11 30 -16 66 -16 36 0 57 5 66
16 28 34 -29 67 -95 54z"/>
<path d="M5850 995 c-15 -18 25 -65 55 -65 33 0 38 13 15 43 -23 29 -55 40
-70 22z"/>
<path d="M40 851 c-21 -17 -23 -22 -10 -31 18 -12 230 -14 230 -2 0 15 -82 43
-140 49 -46 4 -59 2 -80 -16z"/>
<path d="M32 670 c-12 -5 -22 -14 -22 -20 0 -26 62 -34 289 -38 231 -4 326 1
316 18 -17 28 -524 63 -583 40z"/>
<path d="M20 552 c0 -19 41 -44 99 -62 156 -49 621 -48 621 1 0 22 -65 30
-299 39 -135 5 -273 14 -306 20 -73 12 -115 13 -115 2z"/>
<path d="M843 520 c-28 -12 -29 -24 -3 -50 26 -26 60 -25 89 1 19 18 21 24 9
35 -18 18 -68 26 -95 14z"/>
<path d="M1230 498 c-68 -35 -64 -48 17 -48 121 0 197 62 83 68 -42 2 -66 -3
-100 -20z"/>
<path d="M5670 480 c-13 -9 -11 -14 10 -31 38 -32 114 -68 158 -75 29 -4 49
-1 80 15 23 12 42 26 42 32 0 5 -15 16 -32 23 -29 12 -67 19 -213 41 -16 3
-37 0 -45 -5z"/>
<path d="M2752 431 c-17 -11 6 -21 48 -21 16 0 36 3 45 6 25 10 -2 24 -45 24
-19 0 -41 -4 -48 -9z"/>
<path d="M34 419 c-20 -34 70 -57 326 -86 143 -16 249 -18 800 -17 369 0 654
5 680 10 45 10 45 10 20 24 -20 11 -144 17 -605 26 -624 14 -1031 30 -1109 45
-65 12 -103 11 -112 -2z"/>
<path d="M4915 399 c-184 -17 -351 -66 -472 -136 -43 -25 -57 -53 -27 -53 8 0
77 20 152 45 219 71 284 80 602 80 208 0 302 -4 385 -17 179 -27 225 -31 225
-20 0 14 -104 46 -229 72 -187 37 -428 48 -636 29z"/>
<path d="M2905 345 c-113 -41 -217 -56 -435 -64 -134 -5 -214 -12 -229 -21
-21 -11 -22 -14 -8 -22 35 -19 198 -30 387 -25 107 2 205 8 218 12 14 5 22 15
22 31 0 13 1 25 3 26 1 1 142 4 312 7 275 5 314 8 338 24 15 9 27 24 27 31 0
21 -46 25 -169 14 -105 -9 -157 -8 -331 7 -54 5 -77 1 -135 -20z"/>
<path d="M285 260 c-184 -8 -275 -17 -275 -30 0 -13 54 -18 317 -31 334 -16
962 7 992 36 12 13 -23 16 -240 25 -257 10 -533 10 -794 0z"/>
<path d="M2937 194 c-13 -14 6 -24 44 -24 40 0 52 13 23 24 -21 8 -59 8 -67 0z"/>
</g>
</svg>
